<svg width="177" height="31" class="_nav-module--logo--1Up9O">
	<title>Udacity Logo</title>
	<g fill="none" fill-rule="evenodd">
		<path d="M58 17.6c0 2.6-2.1 4.5-5 4.5s-5-1.9-5-4.5V8h-2v9.7c0 3.4 2.9 6.3 7 6.3s7-3 7-6.3V8h-2v9.6zM74.4 8H69v16h5.4c4.5 0 7.6-3.1 7.6-8 0-4.8-3.1-8-7.6-8zm-.2 14H71V10h3.2c3.4 0 5.8 2.3 5.8 6 0 4-2.5 5.9-5.8 6zm43.8.3c-3.6 0-6-2.7-6-6.3 0-3.6 2.5-6.2 6-6.2 2.8 0 4.5 1.6 4.5 1.6l.8-1.4s-1.8-1.9-5.5-1.9c-4.8 0-7.8 3.6-7.8 7.9 0 4.4 3.1 8.1 8 8.1 3.8 0 5.7-2.6 5.7-2.6l-1.1-1.2c-.1-.1-1.6 2-4.6 2zM133 8h2v16h-2zm11 2h5v14h2V10h5V8h-12v2zm30.8-2l-4.8 7.3-4.9-7.3H163l6 8.9V24h2v-7.1l5.9-8.9h-2.1zM94.9 8l-6.2 16h2l1.7-4.6 6.5-1.4 2.2 6h2L97 8h-2.1zM93 17.5l3-7.4h.1l2.5 6.3-5.6 1.1z" fill="#FFF"></path>
		<path d="M29 .1l-9 4.7v14.9c0 .6 0 1.3-.2 1.9-.1.6-.3 1.2-.5 1.7-.1.1-.1.3-.2.4-.3 0-2.5-.7-3.5-1.4-.4-.3-.8-.6-1.2-1-.4-.4-.7-.8-1-1.2-.3-.4-.6-.9-.8-1.4-.2-.5-.4-1-.5-1.6-.1-.5-.1-1.1-.1-1.6V1.2L10 0 0 5.9v13.7C0 25.9 5.1 31 11.3 31c2.1 0 4-.5 5.7-1.5l8.4-4.8c3.3-1.7 5.6-5.2 5.6-9.1V1.3L29 .1zM17.9 26.2c-.9.9-1.6 1.4-2.6 1.9-.6.2-1.3.5-1.9.7-.6.1-1.2.2-1.8.2-.6 0-1.6-.1-2.2-.2-.6-.1-1.2-.3-1.7-.5s-1.1-.5-1.6-.9c-1.3-.9-1.9-1.7-2.5-2.5-.3-.5-.6-1-.9-1.6-.2-.6-.4-1.1-.5-1.7-.2-.7-.2-1.4-.2-2V7.1l8-4.7v13.1c0 5 3.7 9.1 8.4 10.1-.2.2-.3.4-.5.6zm11-9c-.1.5-.3 1-.5 1.5s-.6 1.2-1 1.7c-.6.7-1.2 1.2-2.7 2.1-1.3.7-2.4.9-3.1 1.1.5-1.2.5-2.5.5-3.9L22 6l7-3.7v13.3c0 .5 0 1.1-.1 1.6z" fill="#02B3E4"></path>
	</g>
</svg>
